# xmcd CD database file
#
# Track frame offsets:
#	150
#	34966
#	69085
#	98592
#	127135
#	168472
#	189930
#	214782
#
# Disc length: 3418 seconds
#
# Revision: 0
# Processed by: cddbd v1.5.2PL0 Copyright (c) Steve Scherf et al.
# Submitted via: CDex 1.51
#
DISCID=690d5808
DTITLE=The Impossible Gentlemen - Internationally Recognised Aliens
DYEAR=2013
DGENRE=Jazz
TTITLE0=Heuter Loiter
TTITLE1=Just To See You
TTITLE2=Modern Day Heroes
TTITLE3=The Sliver Of Other Lovers
TTITLE4=The Crank Of Cam Bay
TTITLE5=Love in Unlikely Places
TTITLE6=Barber Blues
TTITLE7=The Impossible Gentlemen - Ever After
EXTD=YEAR: 2013
EXTT0=
EXTT1=
EXTT2=
EXTT3=
EXTT4=
EXTT5=
EXTT6=
EXTT7=
PLAYORDER=
